<svg width="24" height="24" viewBox="0 0 24 24" fill="none" xmlns="http://www.w3.org/2000/svg">
<path d="M7.82422 11.9717C7.82422 12.2236 7.92383 12.4404 8.11719 12.6338L12.6172 17.0225C12.7695 17.1748 12.957 17.2568 13.1797 17.2568C13.6367 17.2568 14 16.8936 14 16.4424C14 16.2197 13.9121 16.0088 13.748 15.8447L9.76367 11.9775L13.748 8.10449C13.9062 7.94043 14 7.73535 14 7.50684C14 7.05566 13.6367 6.69238 13.1797 6.69238C12.957 6.69238 12.7695 6.77441 12.6113 6.92676L8.11719 11.3154C7.91797 11.5205 7.82422 11.7256 7.82422 11.9717Z" fill="currentColor" class="fill-color"></path>
</svg>